<?xml version="1.0" encoding="UTF-8"?>
<svg xmlns="http://www.w3.org/2000/svg" xmlns:xlink="http://www.w3.org/1999/xlink" width="64pt" height="64pt" viewBox="0 0 64 64" version="1.1">
<g id="surface2417758">
<path style=" stroke:none;fill-rule:nonzero;fill:rgb(100%,100%,100%);fill-opacity:1;" d="M 30.78125 12.078125 C 27.46875 12.046875 24.96875 12.203125 22.875 13.28125 C 22.015625 13.71875 21.40625 14.28125 20.9375 14.9375 C 20.6875 15.265625 20.453125 15.5625 20.34375 16.25 C 20.28125 16.578125 20.234375 17.125 20.578125 17.71875 C 20.921875 18.328125 21.65625 18.734375 22.15625 18.8125 C 22.53125 18.859375 23.328125 19.1875 23.46875 19.375 C 23.796875 19.84375 23.921875 20.1875 23.96875 20.375 C 24.015625 20.5625 24 20.4375 24 20.4375 L 24 20.625 C 24 20.625 24.125 22.59375 24.046875 24.625 C 24 25.625 23.90625 26.671875 23.75 27.375 C 23.59375 28.078125 23.203125 28.25 23.765625 27.921875 C 23.375 28.15625 23.515625 28.25 23.03125 28 C 22.53125 27.765625 21.234375 26.671875 19.53125 23.609375 C 17.828125 20.53125 16.59375 18.9375 16.3125 18.59375 C 16.203125 18.28125 15.9375 17.640625 15.03125 16.9375 C 13.859375 16.03125 12.65625 16.015625 12.65625 16.015625 L 12.546875 16 L 3.8125 16 C 3.8125 16 3.3125 16.015625 2.734375 16.140625 C 2.15625 16.265625 1.328125 16.40625 0.546875 17.375 L 0.53125 17.375 C -0.265625 18.390625 -0.125 19.3125 -0.0625 19.875 C 0.015625 20.453125 0.1875 20.90625 0.1875 20.90625 L 0.21875 21 L 0.265625 21.09375 C 0.265625 21.09375 6.9375 35.328125 14.90625 44 C 22.390625 52.15625 31.0625 52 31.0625 52 L 35.984375 52 L 36.09375 51.984375 C 36.09375 51.984375 37.671875 52.0625 39 50.578125 C 39.671875 49.8125 39.828125 49.09375 39.90625 48.5625 C 40 48.015625 40 47.578125 40 47.578125 L 40 47.703125 C 40 47.703125 40.0625 46.671875 40.34375 45.59375 C 40.484375 45.0625 40.6875 44.53125 40.875 44.234375 C 40.96875 44.0625 40.96875 44.109375 41 44.0625 C 41.34375 44.3125 41.90625 44.890625 42.5 45.625 C 43.71875 47.078125 45.09375 49.09375 47.015625 50.484375 C 48.40625 51.46875 49.71875 51.90625 50.71875 52.0625 C 51.390625 52.171875 51.875 52.15625 52.203125 52.125 L 59 52 L 59.0625 52 C 59.0625 52 60.46875 51.96875 61.875 51.078125 C 62.5625 50.640625 63.359375 49.84375 63.625 48.703125 C 63.90625 47.5625 63.59375 46.328125 62.9375 45.1875 C 63.15625 45.578125 62.890625 45.0625 62.6875 44.65625 C 62.484375 44.25 62.171875 43.703125 61.703125 43.015625 C 60.796875 41.671875 59.296875 39.78125 56.8125 37.375 C 55.640625 36.25 54.890625 35.625 54.421875 35.1875 C 54.5625 34.984375 54.578125 34.96875 55.109375 34.34375 C 55.953125 33.359375 57.1875 31.90625 58.75 29.734375 C 60.625 27.109375 61.984375 24.96875 62.859375 23.1875 C 63.734375 21.421875 64.4375 19.953125 63.65625 18.140625 C 63.234375 17.15625 62.484375 16.78125 61.9375 16.546875 C 61.375 16.3125 60.875 16.21875 60.40625 16.140625 C 59.484375 16 58.671875 16 58.671875 16 L 50.75 16.0625 C 50.515625 16.015625 49.609375 15.84375 48.4375 16.59375 C 47.28125 17.3125 47.015625 18.078125 46.953125 18.3125 C 46.765625 18.578125 45.453125 20.4375 43.625 23.6875 C 41.78125 26.96875 40.53125 27.859375 40.375 27.9375 C 40.328125 27.890625 40.421875 27.90625 40.203125 27.78125 C 40.109375 27.703125 40.015625 27.640625 39.9375 26.796875 C 39.875 25.953125 39.953125 24.625 39.953125 23.0625 C 39.953125 19.703125 40.25 17.953125 40.078125 16.28125 C 40 15.4375 39.65625 14.40625 38.90625 13.71875 C 38.15625 13.046875 37.34375 12.796875 36.5 12.578125 C 35.171875 12.25 33.375 12.109375 30.78125 12.078125 Z M 30.75 16.078125 C 33.171875 16.109375 34.875 16.296875 35.5 16.453125 C 36.03125 16.59375 36.109375 16.65625 36.09375 16.625 C 36.09375 16.65625 36.09375 16.640625 36.09375 16.6875 C 36.15625 17.359375 35.953125 19.515625 35.953125 23.0625 C 35.953125 24.453125 35.84375 25.796875 35.953125 27.140625 C 36.0625 28.484375 36.546875 30.125 37.96875 31.09375 L 37.984375 31.09375 C 37.8125 30.984375 39.78125 32.453125 41.65625 31.78125 C 43.53125 31.09375 45.015625 29.375 47.125 25.640625 C 48.96875 22.328125 50.328125 20.46875 50.328125 20.46875 L 50.453125 20.28125 L 50.546875 20.09375 C 50.546875 20.09375 50.515625 20.078125 50.546875 20.0625 L 58.671875 20 C 58.671875 20 59.234375 20 59.78125 20.09375 C 59.796875 20.09375 59.8125 20.09375 59.828125 20.09375 C 59.75 20.125 59.8125 20.328125 59.265625 21.4375 C 58.5625 22.859375 57.296875 24.890625 55.5 27.40625 C 54.015625 29.453125 52.90625 30.78125 52.078125 31.75 C 51.25 32.703125 50.625 33.15625 50.21875 34.40625 C 50.015625 35.015625 50.0625 35.921875 50.359375 36.53125 C 50.640625 37.125 50.984375 37.453125 51.328125 37.78125 C 52.015625 38.4375 52.828125 39.078125 54.015625 40.25 C 56.34375 42.5 57.65625 44.15625 58.390625 45.25 C 58.765625 45.8125 58.984375 46.203125 59.125 46.484375 C 59.265625 46.765625 59.171875 46.65625 59.484375 47.1875 C 59.75 47.671875 59.703125 47.734375 59.703125 47.703125 C 59.4375 47.859375 58.765625 48 58.75 48 L 51.953125 48.125 L 51.765625 48.171875 C 51.765625 48.171875 51.78125 48.1875 51.359375 48.125 C 50.921875 48.046875 50.234375 47.859375 49.359375 47.234375 C 48.28125 46.46875 46.921875 44.6875 45.578125 43.0625 C 44.921875 42.265625 44.25 41.484375 43.40625 40.859375 C 42.5625 40.234375 41.234375 39.65625 39.875 40.109375 C 38.703125 40.484375 37.9375 41.34375 37.453125 42.140625 C 36.96875 42.953125 36.6875 43.796875 36.46875 44.5625 C 36.0625 46.109375 36 47.5 36 47.5 L 36 47.625 C 36 47.625 36 47.71875 35.96875 47.859375 C 35.890625 47.890625 35.78125 47.96875 35.71875 48 L 30.9375 48 C 30.9375 48 24.328125 48.34375 17.84375 41.3125 C 10.90625 33.734375 4.734375 21.0625 4.21875 20 L 12.265625 20 C 12.34375 20.03125 12.625 20.140625 12.59375 20.125 C 12.40625 19.96875 12.6875 20.3125 12.6875 20.3125 L 12.8125 20.609375 L 13.03125 20.859375 C 13.03125 20.859375 14.265625 22.359375 16.03125 25.546875 C 17.921875 28.96875 19.515625 30.75 21.296875 31.609375 C 23.078125 32.46875 24.953125 31.859375 25.75 31.40625 C 27.234375 30.546875 27.40625 29.34375 27.65625 28.234375 C 27.90625 27.125 27.984375 25.9375 28.03125 24.78125 C 28.125 22.5625 28 20.671875 28 20.53125 C 27.984375 20.484375 27.984375 19.9375 27.828125 19.34375 C 27.65625 18.734375 27.34375 17.9375 26.75 17.09375 C 26.5 16.75 26.265625 16.921875 26 16.671875 C 27.109375 16.359375 28.296875 16.046875 30.75 16.078125 Z M 30.75 16.078125 "/>
</g>
</svg>
